<svg width="24" height="24" viewBox="0 0 24 24" fill="none" xmlns="http://www.w3.org/2000/svg">
<path d="M3 18.82C3 18.2882 3 18.0223 3.09854 17.8171C3.19694 17.6122 3.36222 17.4469 3.56713 17.3485C3.77235 17.25 4.03823 17.25 4.57 17.25H19.43C19.9618 17.25 20.2277 17.25 20.4329 17.3485C20.6378 17.4469 20.8031 17.6122 20.9015 17.8171C21 18.0223 21 18.2882 21 18.82V19.43C21 19.9618 21 20.2277 20.9015 20.4329C20.8031 20.6378 20.6378 20.8031 20.4329 20.9015C20.2277 21 19.9618 21 19.43 21H4.57C4.03823 21 3.77235 21 3.56713 20.9015C3.36222 20.8031 3.19694 20.6378 3.09854 20.4329C3 20.2277 3 19.9618 3 19.43V18.82Z" fill="#04B84C" stroke="#04B84C" stroke-width="1.8" stroke-linecap="square"/>
<path d="M3 6.19333C3 5.77958 3 5.57271 3.06784 5.39804C3.13573 5.22323 3.25142 5.07103 3.40168 4.95883C3.55182 4.84672 3.75114 4.79135 4.1498 4.68061L11.5798 2.61672C11.7312 2.57467 11.8069 2.55364 11.8838 2.54464C11.961 2.5356 12.039 2.5356 12.1162 2.54464C12.1931 2.55364 12.2688 2.57467 12.4202 2.61672L19.8502 4.68061C20.2489 4.79135 20.4482 4.84672 20.5983 4.95883C20.7486 5.07103 20.8643 5.22323 20.9322 5.39804C21 5.57271 21 5.77958 21 6.19333V7.18C21 7.71177 21 7.97765 20.9015 8.18287C20.8031 8.38778 20.6378 8.55306 20.4329 8.65146C20.2277 8.75 19.9618 8.75 19.43 8.75H4.57C4.03823 8.75 3.77235 8.75 3.56713 8.65146C3.36222 8.55306 3.19694 8.38778 3.09854 8.18287C3 7.97765 3 7.71177 3 7.18V6.19333Z" fill="#04B84C" stroke="#04B84C" stroke-width="1.8" stroke-linecap="square"/>
<path d="M5.75 17.3978H3.25V8.48047H5.75V17.3978Z" fill="#04B84C" fill-opacity="0.6"/>
<path d="M10.8945 16.3978H8.39453V9.48047L10.8945 9.48047V16.3978Z" fill="#04B84C" fill-opacity="0.6"/>
<path d="M15.75 16.3978H13.25V9.48047L15.75 9.48047V16.3978Z" fill="#04B84C" fill-opacity="0.6"/>
<path d="M20.606 17.3978H18.106V8.48047H20.606V17.3978Z" fill="#04B84C" fill-opacity="0.6"/>
</svg>
